<?xml version="1.0" encoding="utf-8"?>
<!-- Generator: Adobe Illustrator 18.1.1, SVG Export Plug-In . SVG Version: 6.00 Build 0)  -->
<svg version="1.1" id="Слой_1" xmlns="http://www.w3.org/2000/svg" xmlns:xlink="http://www.w3.org/1999/xlink" x="0px" y="0px"
	 viewBox="0 0 100 100" enable-background="new 0 0 100 100" xml:space="preserve">
<g id="Close">
	<path fill="#6CA9E0" d="M61.6,49.7L97,14.3c3.3-3.3,3.3-8.6,0-11.8c-3.3-3.3-8.6-3.3-11.8,0L49.7,37.9L14.3,2.4
		C11-0.8,5.7-0.8,2.4,2.4c-3.3,3.3-3.3,8.6,0,11.8l35.5,35.5L2.4,85.2c-3.3,3.3-3.3,8.6,0,11.8c3.3,3.3,8.6,3.3,11.8,0l35.5-35.5
		L85.2,97c3.3,3.3,8.6,3.3,11.8,0c3.3-3.3,3.3-8.6,0-11.8L61.6,49.7z"/>
</g>
</svg>
