<?xml version="1.0" encoding="utf-8"?>
<!-- Generator: Adobe Illustrator 18.1.1, SVG Export Plug-In . SVG Version: 6.00 Build 0)  -->
<svg version="1.1" id="Слой_1" xmlns="http://www.w3.org/2000/svg" xmlns:xlink="http://www.w3.org/1999/xlink" x="0px" y="0px"
	 viewBox="0 0 100 100" enable-background="new 0 0 100 100" xml:space="preserve">
<g id="Add">
	<path fill="#6CA9E0" d="M93.6,43.7H56.2V6.2c0-3.5-2.8-6.2-6.2-6.2c-3.4,0-6.2,2.8-6.2,6.2v37.5H6.2C2.8,43.7,0,46.5,0,50
		c0,3.5,2.8,6.2,6.2,6.2h37.4v37.5c0,3.5,2.8,6.2,6.2,6.2c3.4,0,6.2-2.8,6.2-6.2V56.2h37.4c3.4,0,6.2-2.8,6.2-6.2
		C99.9,46.5,97.1,43.7,93.6,43.7z"/>
</g>
</svg>
