<?xml version="1.0" encoding="utf-8"?>
<!-- Generator: Adobe Illustrator 18.1.1, SVG Export Plug-In . SVG Version: 6.00 Build 0)  -->
<svg version="1.1" id="Слой_1" xmlns="http://www.w3.org/2000/svg" xmlns:xlink="http://www.w3.org/1999/xlink" x="0px" y="0px"
	 viewBox="0 0 100 100" enable-background="new 0 0 100 100" xml:space="preserve">
<g>
	<g>
		<path fill="#6299C8" d="M50,0.1C22.4,0.1,0,22.5,0,50c0,27.5,22.4,49.9,50,49.9c27.6,0,50-22.4,50-49.9C100,22.5,77.6,0.1,50,0.1z
			 M72.3,38.6c0,0.5,0,1,0,1.5c0,15.2-11.6,32.6-32.7,32.6c-6.5,0-12.5-1.9-17.6-5.2c0.9,0.1,1.8,0.2,2.7,0.2
			c5.4,0,10.4-1.8,14.3-4.9c-5-0.1-9.3-3.4-10.8-8c0.7,0.1,1.4,0.2,2.2,0.2c1,0,2.1-0.1,3-0.4c-5.3-1.1-9.2-5.7-9.2-11.3
			c0,0,0-0.1,0-0.1c1.6,0.9,3.3,1.4,5.2,1.4c-3.1-2.1-5.1-5.6-5.1-9.5c0-2.1,0.6-4.1,1.6-5.8c5.7,6.9,14.2,11.5,23.7,12
			c-0.2-0.8-0.3-1.7-0.3-2.6c0-6.3,5.2-11.5,11.5-11.5c3.3,0,6.3,1.4,8.4,3.6c2.6-0.5,5.1-1.5,7.3-2.8c-0.9,2.7-2.7,4.9-5.1,6.3
			c2.3-0.3,4.6-0.9,6.6-1.8C76.5,35,74.6,37,72.3,38.6z"/>
	</g>
</g>
</svg>
