<?xml version="1.0" encoding="utf-8"?>
<!-- Generator: Adobe Illustrator 18.1.1, SVG Export Plug-In . SVG Version: 6.00 Build 0)  -->
<svg version="1.1" id="Слой_1" xmlns="http://www.w3.org/2000/svg" xmlns:xlink="http://www.w3.org/1999/xlink" x="0px" y="0px"
	 viewBox="0 0 100 100" enable-background="new 0 0 100 100" xml:space="preserve">
<g>
	<path fill="#6299C8" d="M49.9,0C22.4,0,0,22.3,0,49.8s22.4,49.8,49.9,49.8s49.9-22.3,49.9-49.8S77.5,0,49.9,0z M75.3,55.2
		c2.3,2.3,4.8,4.4,6.9,6.9c0.9,1.1,1.8,2.3,2.5,3.5c0.9,1.8,0.1,3.9-1.6,4l-10.2,0c-2.6,0.2-4.7-0.8-6.5-2.6c-1.4-1.4-2.7-3-4.1-4.5
		c-0.6-0.6-1.1-1.2-1.8-1.6C59,60,57.8,60.3,57,61.7c-0.8,1.5-1,3.1-1.1,4.8c-0.1,2.4-0.8,3-3.3,3.2c-5.2,0.2-10.1-0.5-14.6-3.1
		c-4-2.3-7.1-5.5-9.9-9.2c-5.3-7.2-9.3-15-13-23.1c-0.8-1.8-0.2-2.8,1.8-2.8c3.3-0.1,6.7-0.1,10,0c1.4,0,2.3,0.8,2.8,2.1
		c1.8,4.4,4,8.6,6.8,12.6c0.7,1,1.5,2.1,2.6,2.8c1.2,0.8,2.1,0.5,2.6-0.8c0.4-0.8,0.5-1.7,0.6-2.6c0.3-3.1,0.3-6.2-0.2-9.2
		c-0.3-1.9-1.4-3.2-3.3-3.5c-1-0.2-0.8-0.5-0.4-1.1c0.8-1,1.6-1.6,3.1-1.6l11.6,0c1.8,0.4,2.2,1.2,2.5,3l0,12.8
		c0,0.7,0.4,2.8,1.6,3.3c1,0.3,1.7-0.5,2.3-1.1c2.8-2.9,4.7-6.4,6.5-10c0.8-1.6,1.5-3.2,2.1-4.9c0.5-1.2,1.2-1.8,2.6-1.8l11.1,0
		c0.3,0,0.7,0,1,0.1c1.9,0.3,2.4,1.1,1.8,3c-0.9,2.9-2.7,5.3-4.4,7.7c-1.9,2.6-3.8,5-5.7,7.6C73,52,73.2,53.2,75.3,55.2z"/>
</g>
</svg>
